<?xml version="1.0" encoding="utf-8"?>
<!-- Generator: Adobe Illustrator 16.0.0, SVG Export Plug-In . SVG Version: 6.00 Build 0)  -->
<!DOCTYPE svg PUBLIC "-//W3C//DTD SVG 1.1//EN" "http://www.w3.org/Graphics/SVG/1.1/DTD/svg11.dtd">
<svg version="1.1" id="Layer_1" xmlns="http://www.w3.org/2000/svg" xmlns:xlink="http://www.w3.org/1999/xlink" x="0px" y="0px"
	 width="226.771px" height="181.417px" viewBox="0 0 226.771 181.417" enable-background="new 0 0 226.771 181.417"
	 xml:space="preserve">
<rect x="-0.174" display="none" fill="#0F4D99" width="226.771" height="181.417"/>
<path display="none" fill="#FFFFFF" d="M108.209,174.354c-45.571,0-82.646-37.074-82.646-82.646
	c0-45.571,37.075-82.646,82.646-82.646c45.571,0,82.646,37.075,82.646,82.646C190.854,137.28,153.78,174.354,108.209,174.354z
	 M108.209,12.563c-43.641,0-79.146,35.504-79.146,79.146c0,43.641,35.504,79.146,79.146,79.146
	c43.641,0,79.146-35.505,79.146-79.146C187.354,48.067,151.849,12.563,108.209,12.563z"/>
<circle fill="#0F4D99" cx="108.208" cy="91.708" r="81.151"/>
<path display="none" fill="#FC3D21" d="M175.419,72.066c16.467-12.057,24.812-20.875,28.754-28.189c0,0-8.637,28.906-48.998,59.113
	c0,0-61.631,42.055-78.47,53.859c0,0-15.538,10.979-28.729,27.99l-0.307-2.775c0,0,9.879-14.537,32.377-30.424
	c19.791-13.977,27.169-18.662,27.169-18.662s47.011-29.421,56.728-42.229c0,0-32.391,19.301-91.88,30.6
	c0,0-26.908,6.771-44.485,17.75h-2.431c0,0,15.343-13.041,50.931-23.154C76.075,115.944,136.294,98.064,175.419,72.066
	L175.419,72.066z"/>
<g display="none">
	<path display="inline" fill="#FFFFFF" d="M131.304,111.8c0,0,11.37,3.494,7.551,13.279c0,0-4.947,9.982-19.617,5.121l-2.994,2.691
		l-0.107-9.484l4.273,3.234c0,0,9.809,2.67,9.982-2.951c0,0-0.498-2.082-8.029-4.384c0,0-8.766-2.69-6.771-10.416
		c0,0,1.392-12.021,18.791-7.161l3.039-1.648l-0.043,9.199l-3.756-3.688c0,0-7.854-2.536-9.022,1.279
		C123.321,111.037,128.438,110.757,131.304,111.8L131.304,111.8z"/>
	<path display="inline" fill="#FFFFFF" d="M175.528,130.027l-3.473-3.385l-10.593-25.497H148.36l3.342,3.581l-7.031,22.395
		l-2.905,2.906h8.506l-1.996-2.689l1.129-3.994h9.635l1.477,3.82l-2.862,2.863H175.528z M150.53,119.352l3.123-9.896l4.08,9.896
		H150.53z"/>
	<polygon display="inline" fill="#FFFFFF" points="45.413,101.253 57.564,101.253 67.981,118.789 67.981,103.423 66.071,101.253 
		73.71,101.253 71.801,104.205 71.801,127.033 74.578,130.07 62.426,130.07 52.031,112.082 52.031,127.141 54.267,130.113 
		45.065,130.113 47.67,126.945 47.67,104.725 	"/>
	<path display="inline" fill="#FFFFFF" d="M115.896,113.146c0,0-3.037-8.246,6.076-11.284c0,0,4.34-3.472,13.452,0l1.996-1.78v9.201
		c0,0-4.166-4.383-7.205-4.816c-3.034-0.434-6.073,0.436-5.643,4.773L115.896,113.146L115.896,113.146z"/>
	<path display="inline" fill="#FFFFFF" d="M123.694,92.792c0.004,0.004,0.006,0.006,0.006,0.006L123.694,92.792L123.694,92.792z"/>
</g>
<path fill="#FC3D21" d="M21.146,124.938c1.699-1.822,11.881-9.224,33.073-16.901c21.632-7.839,45.981-15.305,82.547-30.709
	c51.868-21.852,64.405-47.611,64.405-47.611s-10.453,35.675-61.818,57.105c-21.19,8.842-56.744,18.131-73.968,22.012
	c-19.625,5.25-35.969,13.188-40,16.104H21.146z"/>
<g>
	<path fill="#FFFFFF" d="M44.084,103.224l2.783-0.908c0,0,0.501-1.732,0.501-10.674V80.789l-3.1-1.55v-2.417h7.798
		c1.914,0,2.644,0.135,3.831,1.688l11.494,14.822v-4.742c0-6.34-0.457-8.256-0.457-8.256l-3.329-0.957v-2.554h10.808v2.554
		l-2.828,0.957c0,0-0.455,1.916-0.455,8.256v17.422h-4.193L51.154,85.99v5.656c0,8.938,0.502,10.671,0.502,10.671l3.239,0.91v2.556
		H44.084V103.224z"/>
	<path fill="#FFFFFF" d="M77.486,103.318l2.418-0.547L89.8,76.589h5.656l10.671,26.271l2.417,0.457v2.462H94.27v-2.462l3.056-0.457
		l-2.007-5.837h-8.575l-1.87,5.748l3.059,0.547v2.462H77.486V103.318z M87.749,94.013h6.521l-3.33-9.762L87.749,94.013z"/>
	<path fill="#FFFFFF" d="M113.212,104.23l0.821-7.525h3.922l0.957,4.606c1.05,1.094,2.556,1.642,4.287,1.642
		c2.099,0,4.197-1.05,4.197-3.104c0-2.92-3.648-4.147-7.253-5.93c-3.421-1.688-6.703-3.968-6.703-8.621
		c0-5.562,4.833-9.211,11.219-9.211c3.147,0,6.567,0.73,9.396,1.961l-0.687,6.889h-4.014l-0.821-4.332
		c-1.096-0.823-2.555-1.277-4.104-1.277c-1.823,0-3.648,0.865-3.648,2.691c0,2.779,2.828,4.012,6.02,5.427
		c3.926,1.729,8.305,3.877,8.305,9.624c0,6.021-5.431,9.303-11.948,9.303C119.732,106.373,116.131,105.642,113.212,104.23z"/>
	<path fill="#FFFFFF" d="M139.766,103.318l2.417-0.547l9.896-26.182h5.655l10.672,26.271l2.417,0.457v2.462H156.55v-2.462
		l3.059-0.457l-2.007-5.837h-8.575l-1.87,5.748l3.057,0.547v2.462h-10.441L139.766,103.318L139.766,103.318z M150.027,94.013h6.521
		l-3.33-9.762L150.027,94.013z"/>
</g>
<g>
	<path fill="#FFFFFF" stroke="#FFFFFF" stroke-miterlimit="10" d="M122.877,141.277c4.652,2.749,9.134,4.472,13.067,5.003
		c3.742,0.504,6.975-0.069,9.362-1.867c0.312-0.234,0.61-0.488,0.897-0.761c11.242-10.724-2.164-46.129-23.081-68.06l-0.015-0.019
		c-0.006-0.006-1.939-2.242-3.256-3.559l0.704-0.703c1.246,1.248,3.1,3.382,3.284,3.597c0.002,0.001,0.002,0.001,0.002,0.002
		c0,0,0-0.001-0.002-0.002l0.002,0.002c21.234,22.263,34.654,58.386,23.044,69.459c-0.307,0.293-0.636,0.571-0.986,0.834
		c-2.606,1.967-6.091,2.597-10.088,2.061c-4.067-0.55-8.676-2.316-13.438-5.132L122.877,141.277L122.877,141.277z M123.85,74.917
		c0.005,0.004,0.007,0.006,0.007,0.006L123.85,74.917L123.85,74.917z"/>
	<path fill="#FFFFFF" stroke="#FFFFFF" stroke-miterlimit="10" d="M122.09,74.538c-0.175-0.208-0.328-0.39-0.465-0.551h0.002
		c-0.175-0.205-0.333-0.39-0.472-0.551c-10.089-11.702-18.843-18.808-26.229-22.521c-8.603-4.326-15.308-4.019-20.072-1.012
		c-4.121,2.601-5.684,10.129-2.91,21.672c2.343,9.75,7.786,22.292,17.39,37.083l-0.015-0.024c0.025,0.034,8.816,12.176,9.78,12.897
		l-0.674,0.901c-1.116-0.836-9.993-13.104-10.019-13.138l-0.016-0.024c-9.685-14.912-15.176-27.575-17.546-37.434
		c-2.9-12.067-1.114-20.033,3.409-22.887c5.085-3.209,12.171-3.573,21.176,0.955c7.507,3.774,16.382,10.971,26.577,22.796
		c0.179,0.207,0.335,0.391,0.476,0.555h0.002c0.177,0.208,0.336,0.395,0.472,0.556L122.09,74.538L122.09,74.538z"/>
	<path fill="#FFFFFF" stroke="#FFFFFF" stroke-miterlimit="10" d="M102.431,129.037c2.198,1.883,4.615,2.67,5.396,1.759
		c0.781-0.911-0.369-3.177-2.564-5.058c-2.201-1.887-4.616-2.672-5.396-1.761C99.085,124.888,100.235,127.152,102.431,129.037
		L102.431,129.037z"/>
</g>
<path fill="#FC3D21" d="M201.173,29.717c0,0-8.279,25.26-38.007,50.486c-13.916,11.809-34.947,25.17-83.807,57.98
	c-21.308,14.776-34.106,32.718-34.384,33.496l-0.307-4.304c3.049-6.346,14.172-16.775,24.634-25.624
	c19.204-16.244,83.186-53.162,106.964-79.633C194.399,41.934,201.173,29.717,201.173,29.717z"/>
</svg>
