<?xml version="1.0" encoding="utf-8"?>
<!-- Generator: Adobe Illustrator 16.0.0, SVG Export Plug-In . SVG Version: 6.00 Build 0)  -->
<!DOCTYPE svg PUBLIC "-//W3C//DTD SVG 1.1//EN" "http://www.w3.org/Graphics/SVG/1.1/DTD/svg11.dtd">
<svg version="1.1" id="Layer_1" xmlns="http://www.w3.org/2000/svg" xmlns:xlink="http://www.w3.org/1999/xlink" x="0px" y="0px"
	 width="226.771px" height="181.417px" viewBox="0 24.16 226.771 181.417" enable-background="new 0 24.16 226.771 181.417"
	 xml:space="preserve">
<rect x="0" y="24.16" display="none" fill="#312F81" width="226.771" height="181.417"/>
<path display="none" fill="#FC3D21" d="M175.419,72.066c16.467-12.057,24.812-20.875,28.754-28.189c0,0-8.637,28.906-48.998,59.112
	c0,0-61.631,42.056-78.47,53.86c0,0-15.538,10.979-28.729,27.99l-0.306-2.775c0,0,9.879-14.537,32.377-30.424
	c19.791-13.977,27.169-18.662,27.169-18.662s47.01-29.421,56.727-42.229c0,0-32.39,19.302-91.88,30.6c0,0-26.908,6.771-44.485,17.75
	h-2.431c0,0,15.343-13.041,50.931-23.154C76.075,115.944,136.294,98.064,175.419,72.066L175.419,72.066z"/>
<g display="none">
	<path fill="#FFFFFF" d="M131.304,111.8c0,0,11.371,3.494,7.551,13.28c0,0-4.947,9.982-19.617,5.121l-2.994,2.691l-0.107-9.484
		l4.273,3.234c0,0,9.809,2.67,9.982-2.951c0,0-0.498-2.082-8.029-4.384c0,0-8.766-2.69-6.771-10.416c0,0,1.391-12.021,18.791-7.161
		l3.039-1.649l-0.043,9.2l-3.756-3.688c0,0-7.854-2.536-9.023,1.28C123.321,111.036,128.438,110.758,131.304,111.8L131.304,111.8z"
		/>
	<path fill="#FFFFFF" d="M175.528,130.027l-3.473-3.385l-10.592-25.497H148.36l3.342,3.581l-7.031,22.395l-2.906,2.906h8.506
		l-1.996-2.689l1.129-3.994h9.635l1.476,3.82l-2.862,2.863H175.528z M150.53,119.352l3.123-9.896l4.08,9.896H150.53z"/>
	<polygon fill="#FFFFFF" points="45.413,101.253 57.564,101.253 67.981,118.788 67.981,103.423 66.071,101.253 73.71,101.253 
		71.801,104.205 71.801,127.033 74.578,130.07 62.426,130.07 52.031,112.082 52.031,127.141 54.267,130.113 45.065,130.113 
		47.67,126.945 47.67,104.725 	"/>
	<path fill="#FFFFFF" d="M115.896,113.146c0,0-3.037-8.246,6.076-11.284c0,0,4.34-3.472,13.453,0l1.996-1.78v9.2
		c0,0-4.166-4.382-7.205-4.816c-3.035-0.434-6.074,0.436-5.643,4.773L115.896,113.146L115.896,113.146z"/>
	<path fill="#FFFFFF" d="M123.694,92.792c0.004,0.004,0.006,0.006,0.006,0.006L123.694,92.792L123.694,92.792z"/>
</g>
<path fill="#FC3D21" d="M22.146,150.098c0,0,10.881-9.224,32.074-16.902c21.631-7.838,45.981-15.304,82.546-30.708
	c51.869-21.852,64.406-47.611,64.406-47.611s-10.453,35.675-61.819,57.105c-21.19,8.841-57.245,17.521-74.468,21.403
	c-14.73,3.32-31.833,11.167-40.309,16.713H22.146z"/>
<g>
	<path fill="#FFFFFF" d="M44.084,127.385l2.783-0.909c0,0,0.501-1.732,0.501-10.673v-10.854l-3.1-1.55v-2.417h7.798
		c1.914,0,2.644,0.135,3.831,1.688l11.494,14.821v-4.742c0-6.339-0.457-8.255-0.457-8.255l-3.329-0.958v-2.553h10.808v2.553
		l-2.828,0.958c0,0-0.455,1.916-0.455,8.255v17.423h-4.194L51.154,110.15v5.656c0,8.938,0.502,10.671,0.502,10.671l3.239,0.91v2.556
		H44.084V127.385z"/>
	<path fill="#FFFFFF" d="M77.486,127.478l2.418-0.547L89.8,100.75h5.656l10.671,26.271l2.417,0.457v2.462H94.27v-2.462l3.056-0.457
		l-2.007-5.837h-8.575l-1.87,5.748l3.058,0.547v2.462H77.486V127.478z M87.749,118.173h6.521l-3.33-9.761L87.749,118.173z"/>
	<path fill="#FFFFFF" d="M113.212,128.39l0.821-7.526h3.922l0.957,4.607c1.05,1.094,2.556,1.642,4.287,1.642
		c2.099,0,4.197-1.05,4.197-3.104c0-2.919-3.648-4.147-7.253-5.929c-3.421-1.688-6.703-3.968-6.703-8.621
		c0-5.562,4.833-9.211,11.219-9.211c3.147,0,6.567,0.73,9.396,1.96l-0.686,6.889h-4.014l-0.821-4.332
		c-1.096-0.823-2.555-1.277-4.104-1.277c-1.823,0-3.648,0.865-3.648,2.691c0,2.779,2.828,4.012,6.02,5.427
		c3.925,1.73,8.304,3.877,8.304,9.624c0,6.021-5.43,9.303-11.948,9.303C119.732,130.532,116.131,129.802,113.212,128.39z"/>
	<path fill="#FFFFFF" d="M139.766,127.478l2.417-0.547l9.896-26.182h5.655l10.672,26.271l2.417,0.457v2.462H156.55v-2.462
		l3.058-0.457l-2.007-5.837h-8.575l-1.87,5.748l3.057,0.547v2.462h-10.442L139.766,127.478L139.766,127.478z M150.027,118.173h6.521
		l-3.33-9.761L150.027,118.173z"/>
</g>
<path fill="#FC3D21" d="M201.173,54.877c0,0-8.28,25.26-38.007,50.486c-13.916,11.809-34.947,25.17-83.807,57.981
	c-24.347,16.35-34.384,32.495-34.384,32.495l-0.306-2.775c3.049-6.346,14.217-17.087,24.678-25.936
	c19.205-16.244,83.141-53.379,106.919-79.849C194.399,67.094,201.173,54.877,201.173,54.877z"/>
</svg>
